<mxfile host="65bd71144e">
    <diagram id="XSCoBpMcJUdDauvQdMB1" name="第 1 页">
        <mxGraphModel dx="1386" dy="787" grid="0" gridSize="10" guides="1" tooltips="1" connect="1" arrows="1" fold="1" page="0" pageScale="1" pageWidth="827" pageHeight="1169" background="#ffffff" math="0" shadow="0">
            <root>
                <mxCell id="0"/>
                <mxCell id="1" parent="0"/>
                <mxCell id="9" style="edgeStyle=none;html=1;exitX=1;exitY=0.25;exitDx=0;exitDy=0;entryX=0;entryY=0.25;entryDx=0;entryDy=0;strokeColor=#000000;strokeWidth=1;fontSize=16;fontColor=#000000;endArrow=oval;endFill=0;" parent="1" source="2" target="8" edge="1">
                    <mxGeometry relative="1" as="geometry"/>
                </mxCell>
                <mxCell id="2" value="&lt;font style=&quot;font-size: 16px;&quot;&gt;Client&lt;/font&gt;" style="rounded=0;whiteSpace=wrap;html=1;strokeColor=#000000;fillColor=none;fontColor=#000000;" parent="1" vertex="1">
                    <mxGeometry x="163" y="414" width="120" height="60" as="geometry"/>
                </mxCell>
                <mxCell id="19" style="edgeStyle=none;html=1;exitX=1;exitY=0.25;exitDx=0;exitDy=0;entryX=0;entryY=0.25;entryDx=0;entryDy=0;strokeColor=#000000;strokeWidth=1;fontSize=12;fontColor=#000000;endArrow=async;endFill=1;" parent="1" source="8" target="11" edge="1">
                    <mxGeometry relative="1" as="geometry"/>
                </mxCell>
                <mxCell id="8" value="&lt;font style=&quot;font-size: 16px;&quot;&gt;OMS&lt;br&gt;Server&lt;br&gt;&lt;/font&gt;" style="rounded=0;whiteSpace=wrap;html=1;strokeColor=#000000;fillColor=none;fontColor=#000000;" parent="1" vertex="1">
                    <mxGeometry x="421" y="414" width="120" height="60" as="geometry"/>
                </mxCell>
                <mxCell id="10" value="1.1 订单上传请求" style="text;html=1;align=center;verticalAlign=middle;resizable=0;points=[];autosize=1;strokeColor=none;fillColor=none;fontSize=12;fontColor=#000000;" parent="1" vertex="1">
                    <mxGeometry x="297" y="401" width="110" height="26" as="geometry"/>
                </mxCell>
                <mxCell id="24" style="edgeStyle=none;html=1;exitX=1;exitY=0.25;exitDx=0;exitDy=0;entryX=0;entryY=0.25;entryDx=0;entryDy=0;strokeColor=#000000;strokeWidth=1;fontSize=12;fontColor=#000000;endArrow=oval;endFill=0;" parent="1" source="11" target="23" edge="1">
                    <mxGeometry relative="1" as="geometry"/>
                </mxCell>
                <mxCell id="11" value="&lt;span style=&quot;font-size: 16px;&quot;&gt;OMS&lt;br&gt;TradingPlatform&lt;br&gt;&lt;/span&gt;" style="rounded=0;whiteSpace=wrap;html=1;strokeColor=#000000;fillColor=none;fontColor=#000000;" parent="1" vertex="1">
                    <mxGeometry x="670" y="414" width="120" height="60" as="geometry"/>
                </mxCell>
                <mxCell id="15" value="" style="group" parent="1" vertex="1" connectable="0">
                    <mxGeometry x="162" y="266" width="214" height="31" as="geometry"/>
                </mxCell>
                <mxCell id="4" value="" style="endArrow=oval;html=1;fontSize=16;strokeWidth=2;endFill=0;strokeColor=#000000;" parent="15" edge="1">
                    <mxGeometry width="50" height="50" relative="1" as="geometry">
                        <mxPoint y="16" as="sourcePoint"/>
                        <mxPoint x="70" y="16" as="targetPoint"/>
                    </mxGeometry>
                </mxCell>
                <mxCell id="5" value="HTTP Post" style="text;html=1;align=left;verticalAlign=middle;resizable=0;points=[];autosize=1;strokeColor=none;fillColor=none;fontSize=16;fontColor=#000000;" parent="15" vertex="1">
                    <mxGeometry x="84" width="96" height="31" as="geometry"/>
                </mxCell>
                <mxCell id="20" value="1.2 订单buffer" style="text;html=1;align=center;verticalAlign=middle;resizable=0;points=[];autosize=1;strokeColor=none;fillColor=none;fontSize=12;fontColor=#000000;" parent="1" vertex="1">
                    <mxGeometry x="560" y="401" width="92" height="26" as="geometry"/>
                </mxCell>
                <mxCell id="21" value="1.1.1. 拆分策略和订单列表&lt;br&gt;1.1.2. 根据产品平台选择Trader" style="text;html=1;align=left;verticalAlign=middle;resizable=0;points=[];autosize=1;strokeColor=none;fillColor=none;fontSize=12;fontColor=#000000;" parent="1" vertex="1">
                    <mxGeometry x="421" y="353" width="182" height="41" as="geometry"/>
                </mxCell>
                <mxCell id="22" value="1.2.1. 根据buffer校验和去重&lt;br&gt;1.2.2. 数据校验、规整&lt;br&gt;1.2.3. 转换为目标csv格式" style="text;html=1;align=left;verticalAlign=middle;resizable=0;points=[];autosize=1;strokeColor=none;fillColor=none;fontSize=12;fontColor=#000000;" parent="1" vertex="1">
                    <mxGeometry x="670" y="346" width="166" height="55" as="geometry"/>
                </mxCell>
                <mxCell id="32" style="edgeStyle=none;html=1;exitX=1;exitY=0.25;exitDx=0;exitDy=0;entryX=0;entryY=0.25;entryDx=0;entryDy=0;strokeColor=#000000;strokeWidth=1;fontSize=12;fontColor=#000000;endArrow=diamondThin;endFill=1;" parent="1" source="23" target="27" edge="1">
                    <mxGeometry relative="1" as="geometry"/>
                </mxCell>
                <mxCell id="50" style="edgeStyle=orthogonalEdgeStyle;html=1;exitX=0;exitY=0.75;exitDx=0;exitDy=0;entryX=1;entryY=0.75;entryDx=0;entryDy=0;strokeColor=#000000;strokeWidth=1;fontSize=12;fontColor=#000000;startArrow=none;startFill=0;endArrow=ERmandOne;endFill=0;" parent="1" source="23" target="8" edge="1">
                    <mxGeometry relative="1" as="geometry">
                        <Array as="points">
                            <mxPoint x="854" y="459"/>
                            <mxPoint x="854" y="491"/>
                            <mxPoint x="607" y="491"/>
                            <mxPoint x="607" y="459"/>
                        </Array>
                    </mxGeometry>
                </mxCell>
                <mxCell id="23" value="&lt;font style=&quot;font-size: 16px;&quot;&gt;Router&lt;/font&gt;" style="rounded=0;whiteSpace=wrap;html=1;strokeColor=#000000;fillColor=none;fontColor=#000000;" parent="1" vertex="1">
                    <mxGeometry x="916" y="414" width="120" height="60" as="geometry"/>
                </mxCell>
                <mxCell id="25" value="1.3.1. 收齐后逐行拆解&lt;br&gt;1.3.2. 每一行从csv转为fix对象&lt;br&gt;1.3.3. 逐行发送" style="text;html=1;align=left;verticalAlign=middle;resizable=0;points=[];autosize=1;strokeColor=none;fillColor=none;fontSize=12;fontColor=#000000;" parent="1" vertex="1">
                    <mxGeometry x="916" y="346" width="177" height="55" as="geometry"/>
                </mxCell>
                <mxCell id="26" value="1.3 要写入的csv数据" style="text;html=1;align=center;verticalAlign=middle;resizable=0;points=[];autosize=1;strokeColor=none;fillColor=none;fontSize=12;fontColor=#000000;" parent="1" vertex="1">
                    <mxGeometry x="789" y="401" width="128" height="26" as="geometry"/>
                </mxCell>
                <mxCell id="41" style="edgeStyle=none;shape=link;html=1;exitX=1;exitY=0.5;exitDx=0;exitDy=0;entryX=0;entryY=0.5;entryDx=0;entryDy=0;strokeColor=#000000;strokeWidth=1;fontSize=12;fontColor=#000000;startArrow=ERmany;startFill=0;endArrow=none;endFill=0;" parent="1" source="27" target="35" edge="1">
                    <mxGeometry relative="1" as="geometry"/>
                </mxCell>
                <mxCell id="46" style="edgeStyle=none;html=1;exitX=0;exitY=0.75;exitDx=0;exitDy=0;entryX=1;entryY=0.75;entryDx=0;entryDy=0;strokeColor=#000000;strokeWidth=1;fontSize=12;fontColor=#000000;startArrow=none;startFill=0;endArrow=diamondThin;endFill=1;" parent="1" source="27" target="23" edge="1">
                    <mxGeometry relative="1" as="geometry"/>
                </mxCell>
                <mxCell id="27" value="&lt;font style=&quot;font-size: 16px;&quot;&gt;Trader&lt;/font&gt;" style="rounded=0;whiteSpace=wrap;html=1;strokeColor=#000000;fillColor=none;fontColor=#000000;" parent="1" vertex="1">
                    <mxGeometry x="1157" y="414" width="120" height="60" as="geometry"/>
                </mxCell>
                <mxCell id="33" value="1.4 逐行订单fix" style="text;html=1;align=center;verticalAlign=middle;resizable=0;points=[];autosize=1;strokeColor=none;fillColor=none;fontSize=12;fontColor=#000000;" parent="1" vertex="1">
                    <mxGeometry x="1048" y="401" width="98" height="26" as="geometry"/>
                </mxCell>
                <mxCell id="34" value="1.4.1. 逐行写入扫单csv" style="text;html=1;align=left;verticalAlign=middle;resizable=0;points=[];autosize=1;strokeColor=none;fillColor=none;fontSize=12;fontColor=#000000;" parent="1" vertex="1">
                    <mxGeometry x="1157" y="378" width="141" height="26" as="geometry"/>
                </mxCell>
                <mxCell id="35" value="&lt;font style=&quot;font-size: 16px;&quot;&gt;卡方客户端&lt;/font&gt;" style="rounded=0;whiteSpace=wrap;html=1;strokeColor=#000000;fillColor=none;fontColor=#000000;" parent="1" vertex="1">
                    <mxGeometry x="1399" y="414" width="120" height="60" as="geometry"/>
                </mxCell>
                <mxCell id="42" value="图例：数据交互方式" style="text;html=1;align=center;verticalAlign=middle;resizable=0;points=[];autosize=1;strokeColor=none;fillColor=none;fontSize=12;fontColor=#000000;" parent="1" vertex="1">
                    <mxGeometry x="150" y="243" width="126" height="26" as="geometry"/>
                </mxCell>
                <mxCell id="43" value="" style="group" parent="1" vertex="1" connectable="0">
                    <mxGeometry x="388" y="265" width="170" height="31" as="geometry"/>
                </mxCell>
                <mxCell id="38" value="" style="endArrow=none;html=1;fontSize=16;strokeWidth=2;endFill=0;strokeColor=#000000;shape=link;" parent="43" edge="1">
                    <mxGeometry width="50" height="50" relative="1" as="geometry">
                        <mxPoint y="16" as="sourcePoint"/>
                        <mxPoint x="70" y="16" as="targetPoint"/>
                    </mxGeometry>
                </mxCell>
                <mxCell id="39" value="Local File" style="text;html=1;align=left;verticalAlign=middle;resizable=0;points=[];autosize=1;strokeColor=none;fillColor=none;fontSize=16;fontColor=#000000;" parent="43" vertex="1">
                    <mxGeometry x="84" width="86" height="31" as="geometry"/>
                </mxCell>
                <mxCell id="44" value="" style="group" parent="1" vertex="1" connectable="0">
                    <mxGeometry x="388" y="297" width="185" height="31" as="geometry"/>
                </mxCell>
                <mxCell id="29" value="" style="endArrow=diamondThin;html=1;fontSize=16;strokeWidth=2;endFill=1;strokeColor=#000000;" parent="44" edge="1">
                    <mxGeometry width="50" height="50" relative="1" as="geometry">
                        <mxPoint y="16" as="sourcePoint"/>
                        <mxPoint x="70" y="16" as="targetPoint"/>
                    </mxGeometry>
                </mxCell>
                <mxCell id="30" value="Fix Session" style="text;html=1;align=left;verticalAlign=middle;resizable=0;points=[];autosize=1;strokeColor=none;fillColor=none;fontSize=16;fontColor=#000000;" parent="44" vertex="1">
                    <mxGeometry x="84" width="101" height="31" as="geometry"/>
                </mxCell>
                <mxCell id="45" value="" style="group" parent="1" vertex="1" connectable="0">
                    <mxGeometry x="162" y="297" width="198" height="31" as="geometry"/>
                </mxCell>
                <mxCell id="17" value="" style="endArrow=async;html=1;fontSize=16;strokeWidth=2;endFill=1;strokeColor=#000000;" parent="45" edge="1">
                    <mxGeometry width="50" height="50" relative="1" as="geometry">
                        <mxPoint y="16" as="sourcePoint"/>
                        <mxPoint x="70" y="16" as="targetPoint"/>
                    </mxGeometry>
                </mxCell>
                <mxCell id="18" value="Memory Data" style="text;html=1;align=left;verticalAlign=middle;resizable=0;points=[];autosize=1;strokeColor=none;fillColor=none;fontSize=16;fontColor=#000000;" parent="45" vertex="1">
                    <mxGeometry x="84" width="114" height="31" as="geometry"/>
                </mxCell>
                <mxCell id="47" value="2.1. 回报写入csv" style="text;html=1;align=left;verticalAlign=middle;resizable=0;points=[];autosize=1;strokeColor=none;fillColor=none;fontSize=12;fontColor=#000000;" parent="1" vertex="1">
                    <mxGeometry x="1289" y="448" width="107" height="26" as="geometry"/>
                </mxCell>
                <mxCell id="48" value="2.1.1. 将回报解析成fix" style="text;html=1;align=left;verticalAlign=middle;resizable=0;points=[];autosize=1;strokeColor=none;fillColor=none;fontSize=12;fontColor=#000000;" parent="1" vertex="1">
                    <mxGeometry x="1157" y="487" width="135" height="26" as="geometry"/>
                </mxCell>
                <mxCell id="49" value="2.2. 逐行回报fix" style="text;html=1;align=center;verticalAlign=middle;resizable=0;points=[];autosize=1;strokeColor=none;fillColor=none;fontSize=12;fontColor=#000000;" parent="1" vertex="1">
                    <mxGeometry x="1047" y="463" width="101" height="26" as="geometry"/>
                </mxCell>
                <mxCell id="51" value="2.2.1. fix转换为json" style="text;html=1;align=left;verticalAlign=middle;resizable=0;points=[];autosize=1;strokeColor=none;fillColor=none;fontSize=12;fontColor=#000000;" parent="1" vertex="1">
                    <mxGeometry x="917" y="487" width="121" height="26" as="geometry"/>
                </mxCell>
                <mxCell id="52" value="" style="group" parent="1" vertex="1" connectable="0">
                    <mxGeometry x="162" y="332" width="220" height="31" as="geometry"/>
                </mxCell>
                <mxCell id="53" value="" style="endArrow=ERmandOne;html=1;fontSize=16;strokeWidth=2;endFill=0;strokeColor=#000000;" parent="52" edge="1">
                    <mxGeometry width="50" height="50" relative="1" as="geometry">
                        <mxPoint y="16" as="sourcePoint"/>
                        <mxPoint x="70" y="16" as="targetPoint"/>
                    </mxGeometry>
                </mxCell>
                <mxCell id="54" value="HTTP Broadcast" style="text;html=1;align=left;verticalAlign=middle;resizable=0;points=[];autosize=1;strokeColor=none;fillColor=none;fontSize=16;fontColor=#000000;" parent="52" vertex="1">
                    <mxGeometry x="84" width="136" height="31" as="geometry"/>
                </mxCell>
                <mxCell id="55" value="2.3 回报fix" style="text;html=1;align=center;verticalAlign=middle;resizable=0;points=[];autosize=1;strokeColor=none;fillColor=none;fontSize=12;fontColor=#000000;" vertex="1" parent="1">
                    <mxGeometry x="695" y="496" width="74" height="26" as="geometry"/>
                </mxCell>
                <mxCell id="56" value="2.3.1. 存到数据库" style="text;html=1;align=left;verticalAlign=middle;resizable=0;points=[];autosize=1;strokeColor=none;fillColor=none;fontSize=12;fontColor=#000000;" vertex="1" parent="1">
                    <mxGeometry x="421" y="487" width="111" height="26" as="geometry"/>
                </mxCell>
            </root>
        </mxGraphModel>
    </diagram>
</mxfile>